<svg xmlns="http://www.w3.org/2000/svg" viewBox="-60 -100 130 200" role="img" aria-label="YourMajor Icon">
  <defs>
    <path id="featherShape" d="M 0,7 C 1.3,6 2.1,5.2 2.4,4.5 Q 2.1,4.2 2,3.9 C 2.3,3 2.7,1.5 2.8,0.3 Q 2.5,0 2.3,-0.3 C 2.5,-1.5 2.4,-3 2.1,-4.3 Q 1.5,-5.5 0.8,-6.3 Q 0.3,-7 0,-7.5 Q -0.3,-7 -0.8,-6.3 Q -1.5,-5.5 -2.1,-4.3 C -2.4,-3 -2.5,-1.5 -2.3,-0.3 Q -2.5,0 -2.8,0.3 C -2.7,1.5 -2.3,3 -2,3.9 Q -2.1,4.2 -2.4,4.5 C -2.1,5.2 -1.3,6 0,7 Z"/>
    <g id="leaf">
      <line x1="0" y1="-7" x2="0" y2="-10.5" stroke="#0F2244" stroke-width="0.6"/>
      <use href="#featherShape" fill="none" stroke="#FFFFFF" stroke-width="1"/>
      <use href="#featherShape" fill="#1A3260" stroke="#0F2244" stroke-width="0.3"/>
      <line x1="0" y1="6" x2="0" y2="-7" stroke="#FFFFFF" stroke-width="0.5" opacity="0.6" stroke-linecap="round"/>
    </g>
    <g id="shadowLeaf">
      <use href="#featherShape" fill="none" stroke="#FFFFFF" stroke-width="1" opacity="0.4"/>
      <use href="#featherShape" fill="#0D1A38" stroke="#091530" stroke-width="0.3" opacity="0.6"/>
    </g>
  </defs>
  <g>
    <g><use href="#shadowLeaf" transform="translate(-14, -49) rotate(198) scale(3.2)"/><use href="#shadowLeaf" transform="translate(-24, -45) rotate(206) scale(2.9)"/><use href="#shadowLeaf" transform="translate(-33, -39) rotate(213) scale(2.55)"/><use href="#shadowLeaf" transform="translate(-40, -31) rotate(220) scale(2.25)"/><use href="#shadowLeaf" transform="translate(-44, -22) rotate(226) scale(1.32)"/><use href="#shadowLeaf" transform="translate(-47, -12) rotate(231) scale(1.18)"/><use href="#shadowLeaf" transform="translate(-48, -2) rotate(235) scale(1.05)"/><use href="#shadowLeaf" transform="translate(-47, 8) rotate(239) scale(0.95)"/><use href="#shadowLeaf" transform="translate(-45, 17) rotate(242) scale(0.88)"/><use href="#shadowLeaf" transform="translate(-41, 25) rotate(245) scale(0.82)"/><use href="#shadowLeaf" transform="translate(-37, 32) rotate(247) scale(0.78)"/><use href="#shadowLeaf" transform="translate(-31, 38) rotate(249) scale(0.74)"/><use href="#shadowLeaf" transform="translate(-25, 42) rotate(251) scale(0.70)"/><use href="#shadowLeaf" transform="translate(-19, 46) rotate(253) scale(0.67)"/><use href="#shadowLeaf" transform="translate(-13, 49) rotate(254) scale(0.65)"/></g>
    <path d="M 0,-50 Q -24,-50 -42,-34 Q -50,-12 -48,10 Q -44,36 -8,54" fill="none" stroke="#0F2244" stroke-width="2.4" stroke-linecap="round"/>
    <g><use href="#leaf" transform="translate(-9, 50) rotate(255) scale(0.75)"/><use href="#leaf" transform="translate(-13, 48) rotate(254) scale(0.76)"/><use href="#leaf" transform="translate(-18, 46) rotate(253) scale(0.78)"/><use href="#leaf" transform="translate(-22, 43) rotate(251) scale(0.80)"/><use href="#leaf" transform="translate(-27, 40) rotate(250) scale(0.83)"/><use href="#leaf" transform="translate(-32, 36) rotate(249) scale(0.86)"/><use href="#leaf" transform="translate(-36, 32) rotate(247) scale(0.90)"/><use href="#leaf" transform="translate(-40, 27) rotate(245) scale(0.94)"/><use href="#leaf" transform="translate(-43, 21) rotate(243) scale(1.0)"/><use href="#leaf" transform="translate(-46, 14) rotate(240) scale(1.07)"/><use href="#leaf" transform="translate(-47, 7) rotate(237) scale(1.16)"/><use href="#leaf" transform="translate(-48, -1) rotate(234) scale(1.26)"/><use href="#leaf" transform="translate(-47, -10) rotate(230) scale(1.38)"/><use href="#leaf" transform="translate(-45, -19) rotate(226) scale(1.52)"/><use href="#leaf" transform="translate(-42, -27) rotate(221) scale(1.68)"/><use href="#leaf" transform="translate(-37, -35) rotate(215) scale(2.775)"/><use href="#leaf" transform="translate(-30, -41) rotate(209) scale(3.075)"/><use href="#leaf" transform="translate(-21, -49) rotate(202) scale(3.8)"/><use href="#leaf" transform="translate(-10, -53) rotate(195) scale(4.2)"/></g>
    <g><use href="#shadowLeaf" transform="translate(14, -49) rotate(162) scale(3.2)"/><use href="#shadowLeaf" transform="translate(24, -45) rotate(154) scale(2.9)"/><use href="#shadowLeaf" transform="translate(33, -39) rotate(147) scale(2.55)"/><use href="#shadowLeaf" transform="translate(40, -31) rotate(140) scale(2.25)"/><use href="#shadowLeaf" transform="translate(44, -22) rotate(134) scale(1.32)"/><use href="#shadowLeaf" transform="translate(47, -12) rotate(129) scale(1.18)"/><use href="#shadowLeaf" transform="translate(48, -2) rotate(125) scale(1.05)"/><use href="#shadowLeaf" transform="translate(47, 8) rotate(121) scale(0.95)"/><use href="#shadowLeaf" transform="translate(45, 17) rotate(118) scale(0.88)"/><use href="#shadowLeaf" transform="translate(41, 25) rotate(115) scale(0.82)"/><use href="#shadowLeaf" transform="translate(37, 32) rotate(113) scale(0.78)"/><use href="#shadowLeaf" transform="translate(31, 38) rotate(111) scale(0.74)"/><use href="#shadowLeaf" transform="translate(25, 42) rotate(109) scale(0.70)"/><use href="#shadowLeaf" transform="translate(19, 46) rotate(107) scale(0.67)"/><use href="#shadowLeaf" transform="translate(13, 49) rotate(106) scale(0.65)"/></g>
    <path d="M 0,-50 Q 24,-50 42,-34 Q 50,-12 48,10 Q 44,36 8,54" fill="none" stroke="#0F2244" stroke-width="2.4" stroke-linecap="round"/>
    <g><use href="#leaf" transform="translate(9, 50) rotate(105) scale(0.75)"/><use href="#leaf" transform="translate(13, 48) rotate(106) scale(0.76)"/><use href="#leaf" transform="translate(18, 46) rotate(107) scale(0.78)"/><use href="#leaf" transform="translate(22, 43) rotate(109) scale(0.80)"/><use href="#leaf" transform="translate(27, 40) rotate(110) scale(0.83)"/><use href="#leaf" transform="translate(32, 36) rotate(111) scale(0.86)"/><use href="#leaf" transform="translate(36, 32) rotate(113) scale(0.90)"/><use href="#leaf" transform="translate(40, 27) rotate(115) scale(0.94)"/><use href="#leaf" transform="translate(43, 21) rotate(117) scale(1.0)"/><use href="#leaf" transform="translate(46, 14) rotate(120) scale(1.07)"/><use href="#leaf" transform="translate(47, 7) rotate(123) scale(1.16)"/><use href="#leaf" transform="translate(48, -1) rotate(126) scale(1.26)"/><use href="#leaf" transform="translate(47, -10) rotate(130) scale(1.38)"/><use href="#leaf" transform="translate(45, -19) rotate(134) scale(1.52)"/><use href="#leaf" transform="translate(42, -27) rotate(139) scale(1.68)"/><use href="#leaf" transform="translate(37, -35) rotate(145) scale(2.775)"/><use href="#leaf" transform="translate(30, -41) rotate(151) scale(3.075)"/><use href="#leaf" transform="translate(21, -49) rotate(158) scale(3.8)"/><use href="#leaf" transform="translate(10, -53) rotate(165) scale(4.2)"/></g>
    <line x1="0" y1="-46" x2="0" y2="44" stroke="#C9A84C" stroke-width="2.2" stroke-linecap="round"/>
    <circle cx="0" cy="-48" r="2.5" fill="#C9A84C"/>
    <path d="M 0,-45 C 12,-48 28,-40 42,-44 C 52,-47 58,-42 62,-38 C 54,-36 42,-40 30,-34 C 18,-30 8,-34 0,-31 Z" fill="none" stroke="#FFFFFF" stroke-width="1.5"/>
    <path d="M 0,-45 C 12,-48 28,-40 42,-44 C 52,-47 58,-42 62,-38 C 54,-36 42,-40 30,-34 C 18,-30 8,-34 0,-31 Z" fill="#C9A84C"/>
    <path d="M 0,-45 C 12,-48 28,-40 42,-44 C 46,-45 50,-44 54,-42 C 46,-42 34,-44 22,-41 C 12,-39 4,-42 0,-42 Z" fill="#d4ba6e" opacity="0.5"/>
    <path d="M 8,-36 C 16,-38 26,-34 36,-37 C 40,-38 44,-37 48,-36 C 42,-36 34,-38 24,-35 C 16,-33 10,-35 8,-36 Z" fill="#a08038" opacity="0.35"/>
  </g>
</svg>